# xmcd
#
# Track frame offsets: 
#        150
#        13422
#        26160
#        35246
#        47251
#        58546
#        71805
#        94118
#        106157
#        117108
#        128469
#        141300
#        151698
#        164135
#        176487
#        187205
#        198181
#        210056
#        219034
#        229177
#        241380
#        253717
#        266941
#        278377
#        289811
#
# Disc length: 4208 seconds
#
# Revision: 1
# Processed by: cddbd v1.5.2PL0 Copyright (c) Steve Scherf et al.
# Submitted via: ExactAudioCopy v1.1
#
DISCID=68106e19
DTITLE=Don Gardner and Dee Dee Ford - I Need Your Lovin' (Relic)
DYEAR=1995
DGENRE=R&B
TTITLE0=I Need Your Lovin' (Part 2) (stereo)
TTITLE1=Let's Go To The Party (stereo)
TTITLE2=The Don Gardner Trio - How Do You Speak To An Angel (mono)
TTITLE3=I Need Your Lovin' (Part 1) (stereo)
TTITLE4=Forever In Your Lover's Arms (stereo)
TTITLE5=Don't You Worry (stereo)
TTITLE6=Dee Dee Ford - I Got A Man (mono)
TTITLE7=T.C.B. (Taking Care Of Business) (mono)
TTITLE8=Don Gardner - Everlasting Love (mono)
TTITLE9=Honey Sweet (mono)
TTITLE10=Dee Dee Ford - Tell Me (stereo)
TTITLE11=The Quicker The Better (mono)
TTITLE12=Lead Me On (stereo)
TTITLE13=I Need You (stereo)
TTITLE14=Dee Dee Ford - This Lonely Place (stereo)
TTITLE15=Don Gardner - Bad Luck (mono)
TTITLE16=You Said (stereo)
TTITLE17=Can't Get You Out Of My Mind (mono)
TTITLE18=I Got A Notion (stereo)
TTITLE19=Nobody But You (stereo)
TTITLE20=Don Gardner - Exactly Like You (stereo)
TTITLE21=Dee Dee Ford - I Left There Crying (stereo)
TTITLE22=Didn't Do Me No Good (mono)
TTITLE23=Dee Dee Ford - Does He Or Doesn't He (mono)
TTITLE24=I Need Your Lovin' (unedited) (stereo)
EXTD=
EXTT0=
EXTT1=
EXTT2=
EXTT3=
EXTT4=
EXTT5=
EXTT6=
EXTT7=
EXTT8=
EXTT9=
EXTT10=
EXTT11=
EXTT12=
EXTT13=
EXTT14=
EXTT15=
EXTT16=
EXTT17=
EXTT18=
EXTT19=
EXTT20=
EXTT21=
EXTT22=
EXTT23=
EXTT24=
PLAYORDER=
